<svg xmlns="http://www.w3.org/2000/svg" viewBox="0 0 26.33 39.98"><defs><style>.cls-1{opacity:0.8;}.cls-2{fill:#ec1c23;fill-rule:evenodd;}</style></defs><title>icon_garantia</title><g id="Capa_2" data-name="Capa 2"><g id="Layer_1" data-name="Layer 1"><g class="cls-1"><path class="cls-2" d="M18.75,0c.23.22.48.43.7.66l6.47,6.45a1.3,1.3,0,0,1,.41,1q0,12.9,0,25.8c0,.84-.23,1.07-1.06,1.07H20.88v.56c0,1.15,0,2.29,0,3.44a1,1,0,0,1-.57,1h-.47l-2.95-1.87a.4.4,0,0,0-.34,0l-3,1.87h-.47a1,1,0,0,1-.58-1c0-1.18,0-2.36,0-3.55V35H1c-.77,0-1-.25-1-1Q0,17.49,0,1A1,1,0,0,1,.55,0ZM12.58,33.4c-.19-1.34.24-2.67-.34-4a2.37,2.37,0,0,0-.9-1.23A1.6,1.6,0,0,1,10.61,26a2.17,2.17,0,0,0,0-1.64,1.61,1.61,0,0,1,.76-2.2A1.76,1.76,0,0,0,12.21,21a1.63,1.63,0,0,1,1.9-1.39,1.81,1.81,0,0,0,1.38-.46,1.71,1.71,0,0,1,2.44,0,1.84,1.84,0,0,0,1.42.46A1.58,1.58,0,0,1,21.19,21a2,2,0,0,0,.93,1.26,1.58,1.58,0,0,1,.71,2.12,2.28,2.28,0,0,0,0,1.72,1.64,1.64,0,0,1-.73,2.15,3.58,3.58,0,0,0-.45.31.73.73,0,0,0-.26.32,5.76,5.76,0,0,0-.52,2.71,6.76,6.76,0,0,1,0,.9v1h3.86V8.62h-5.9c-.93,0-1.14-.2-1.14-1.15V1.59H1.59V33.4Zm6.36-4.2h.41c.23,0,.35-.06.38-.28a2.61,2.61,0,0,1,1.47-2,.3.3,0,0,0,.14-.45,2.91,2.91,0,0,1,0-2.59.29.29,0,0,0-.17-.44,2.57,2.57,0,0,1-1.44-2,.31.31,0,0,0-.4-.3A2.63,2.63,0,0,1,17,20.42a.41.41,0,0,0-.64,0,2.54,2.54,0,0,1-2.25.74.35.35,0,0,0-.45.33,2.49,2.49,0,0,1-1.36,1.89.38.38,0,0,0-.21.59,2.64,2.64,0,0,1,0,2.37c-.16.33,0,.51.24.66a2.35,2.35,0,0,1,1.3,1.79c.06.31.2.44.53.39a2.47,2.47,0,0,1,2.14.7.47.47,0,0,0,.76,0A2.22,2.22,0,0,1,18.94,29.2Zm.35,8.56v-7c-.68-.09-.68-.09-1.2.31a1.85,1.85,0,0,1-2.73,0,.58.58,0,0,1-.12-.1,1.07,1.07,0,0,0-1.1-.22v7c.65-.41,1.27-.76,1.85-1.17a1.11,1.11,0,0,1,1.46,0C18,37,18.64,37.36,19.29,37.76ZM19.29,7h4.17L19.29,2.85Z"/><path class="cls-2" d="M13.2,11c2.81,0,5.62,0,8.43,0a1.15,1.15,0,0,1,.76.28.75.75,0,0,1-.45,1.25,1.94,1.94,0,0,1-.42,0H4.58a.78.78,0,0,1-.75-.8A.76.76,0,0,1,4.61,11H13.2Z"/><path class="cls-2" d="M11.6,16.51H4.93a2.91,2.91,0,0,1-.51,0,.77.77,0,0,1,0-1.49,2.42,2.42,0,0,1,.47,0H18.47c.64,0,1,.28,1,.78a.74.74,0,0,1-.64.76,4.35,4.35,0,0,1-.51,0Z"/><path class="cls-2" d="M9.64,8.62H4.88a3.1,3.1,0,0,1-.43,0,.75.75,0,0,1-.62-.74.74.74,0,0,1,.6-.76,2.74,2.74,0,0,1,.5,0h9.4a2.47,2.47,0,0,1,.54.05.74.74,0,0,1,.57.74.76.76,0,0,1-.62.75,3.54,3.54,0,0,1-.46,0Z"/><path class="cls-2" d="M22.59,15.73a.78.78,0,1,1-.76-.77A.76.76,0,0,1,22.59,15.73Z"/></g></g></g></svg>