<svg xmlns="http://www.w3.org/2000/svg" viewBox="0 0 15.79 22.83"><defs><style>.cls-1{fill:none;stroke:#ec1c23;stroke-miterlimit:10;stroke-width:2px;fill-rule:evenodd;}</style></defs><title>icon_pin</title><g id="Capa_2" data-name="Capa 2"><g id="Layer_1" data-name="Layer 1"><path class="cls-1" d="M8.32,1c.31.05.63.09.94.15a6.57,6.57,0,0,1,4.82,3.92c.11.26.22.51.32.77a5.64,5.64,0,0,1-.4,4.92c-.58,1.07-1.22,2.11-1.88,3.14C10.67,16.14,9.35,18.45,8,20.76l-.12.18-.43-.69c-1.66-2.72-3.33-5.43-5-8.16A9.7,9.7,0,0,1,1.17,9.15,6.38,6.38,0,0,1,1.6,5a6.54,6.54,0,0,1,5.19-3.9L7.27,1ZM5.43,7.75a4,4,0,0,0,.1.82,2.44,2.44,0,0,0,3,1.58,2.56,2.56,0,0,0,1.88-2.92A2.52,2.52,0,0,0,7.49,5.17a2.24,2.24,0,0,0-2,1.76A6.61,6.61,0,0,0,5.43,7.75Z"/></g></g></svg>