<svg xmlns="http://www.w3.org/2000/svg" viewBox="0 0 28.3 24.94"><defs><style>.cls-1{fill:#fff;fill-rule:evenodd;}</style></defs><title>icon_tiempo</title><g id="Capa_2" data-name="Capa 2"><g id="Layer_1" data-name="Layer 1"><path class="cls-1" d="M25.07,5.53c-.26.42-.47.78-.7,1.16a11.34,11.34,0,0,1,3,3.82A10.21,10.21,0,1,1,16.81,4.64c.77-.09.77-.09.68-1.21l-.66-.05a1.66,1.66,0,0,1-1.56-1.61A1.59,1.59,0,0,1,16.65.07a15.74,15.74,0,0,1,2.83,0,1.59,1.59,0,0,1,1.44,1.71A1.66,1.66,0,0,1,19.3,3.39l-.59,0V4.51c.81.17,1.63.27,2.41.51s1.51.61,2.33,1l.65-1-.86-.55a.62.62,0,0,1-.23-1c.35-.55.69-1.11,1-1.67a.65.65,0,0,1,1-.26l2.64,1.62a.62.62,0,0,1,.23,1c-.31.53-.63,1-1,1.57s-.57.63-1.18.29C25.57,5.82,25.35,5.7,25.07,5.53Zm-7,18.24a9,9,0,1,0-9-9.08A9,9,0,0,0,18.1,23.77Zm0-22.62h0a4.74,4.74,0,0,0-1.13,0c-.22.05-.37.35-.56.54.2.18.38.49.59.51a10.93,10.93,0,0,0,2.14,0c.23,0,.42-.35.63-.54-.22-.18-.41-.44-.66-.51A3.76,3.76,0,0,0,18.11,1.15Zm8.62,2.72L24.8,2.7c-.19.33-.37.62-.58,1l1.91,1.16Z"/><path class="cls-1" d="M3.1,14.16H5.38c.4,0,.8.08.79.6s-.38.55-.76.55H.8c-.42,0-.81-.09-.8-.59s.43-.56.83-.56Z"/><path class="cls-1" d="M4.19,12.47H2.43c-.4,0-.73-.13-.73-.58s.31-.56.69-.56H6c.38,0,.69.13.7.55s-.32.6-.72.59Z"/><path class="cls-1" d="M4.21,18.14H2.38c-.39,0-.69-.15-.68-.58S2,17,2.4,17H6.06c.4,0,.69.15.68.57s-.32.56-.7.56Z"/><path class="cls-1" d="M5.63,21a10.93,10.93,0,0,1-1.62,0c-.23,0-.42-.35-.63-.54.2-.19.39-.51.59-.52,1.11-.06,2.22-.06,3.33,0,.2,0,.39.34.59.53-.21.19-.39.51-.63.54A11,11,0,0,1,5.63,21Z"/><path class="cls-1" d="M5.6,9.63H4.09c-.36,0-.69-.12-.7-.55s.3-.57.68-.57H7.21c.39,0,.73.18.65.57a.87.87,0,0,1-.63.53,11,11,0,0,1-1.63,0Z"/><path class="cls-1" d="M10.18,14.73a7.93,7.93,0,1,1,8,7.93A7.93,7.93,0,0,1,10.18,14.73Zm7.35,6.68c0-.45,0-.91,0-1.37s.09-.75.56-.75.59.34.59.74v1.48a6,6,0,0,0,3.61-1.59c-.13-.39-.32-.88-.16-1.1.41-.58.78,0,1.19.24a7,7,0,0,0,1.55-3.75H23.44c-.42,0-.81-.09-.79-.6s.39-.55.78-.55h1.45a6,6,0,0,0-1.6-3.62c-.39.14-.88.36-1.11.2-.6-.42,0-.81.21-1.2a5.52,5.52,0,0,0-3.7-1.47V9.51c0,.38-.17.68-.59.67s-.56-.31-.56-.69V8A5.54,5.54,0,0,0,13.9,9.56c.14.39.36.88.2,1.1-.43.61-.81,0-1.22-.24a6.69,6.69,0,0,0-1.54,3.73h1.45c.38,0,.75.11.75.58s-.35.57-.74.58H11.32a5.78,5.78,0,0,0,1.6,3.61c.39-.13.88-.34,1.11-.18.61.43,0,.81-.24,1.17A5.62,5.62,0,0,0,17.53,21.41Z"/><path class="cls-1" d="M17.53,14.1a9.45,9.45,0,0,1,0-1.51.88.88,0,0,1,.51-.62c.4-.1.6.23.61.61,0,.69,0,1.38,0,2.07a.6.6,0,0,1-.62.65,3.28,3.28,0,0,1-.94,0c-.26-.08-.6-.28-.66-.5-.12-.39.21-.58.59-.63Z"/></g></g></svg>