<svg xmlns="http://www.w3.org/2000/svg" xmlns:xlink="http://www.w3.org/1999/xlink" viewBox="0 0 154.29 38.48"><defs><style>.cls-1{fill:none;clip-rule:evenodd;}.cls-2{fill:#ec1c23;}.cls-2,.cls-3{fill-rule:evenodd;}.cls-4{clip-path:url(#clip-path);}</style><clipPath id="clip-path"><path class="cls-1" d="M0,8.78A8.78,8.78,0,1,0,8.78,0,8.78,8.78,0,0,0,0,8.78Z"/></clipPath></defs><title>logo_cerrajeriaPalermo</title><g id="Capa_2" data-name="Capa 2"><g id="Layer_1" data-name="Layer 1"><path class="cls-2" d="M0,8.78A8.78,8.78,0,1,0,8.78,0,8.78,8.78,0,0,0,0,8.78Z"/><path d="M20.23,16.77V1.1H32.12v4H25v2H31v3.75H25v1.88h7.35v4Z"/><path d="M41.47,1.1C46,1.1,48.53,3.24,48.53,7A5.28,5.28,0,0,1,46,12l3.11,4.26v.54H44l-2.88-3.93H39.54v3.93h-4.8V1.1ZM41.78,9a1.81,1.81,0,0,0,2-2c0-1.24-.82-1.93-2.28-1.93h-2V9Z"/><path d="M57.77,1.1c4.52,0,7.06,2.14,7.06,5.94A5.29,5.29,0,0,1,62.27,12l3.1,4.26v.54H60.26l-2.87-3.93H55.85v3.93h-4.8V1.1ZM58.08,9a1.81,1.81,0,0,0,2-2c0-1.24-.82-1.93-2.29-1.93h-2V9Z"/><path d="M71.48,16.77H66.4L72,1.1h6.55L84.2,16.77H79.14l-.77-2.34H72.23ZM75.77,6.6C75.54,6,75.41,5.42,75.28,5a16.75,16.75,0,0,1-.46,1.64l-1.26,3.75H77Z"/><path d="M96.08,10.45c0,4.6-1.56,6.55-5.47,6.55a12.8,12.8,0,0,1-5.39-1.41l1.08-3.32a11.3,11.3,0,0,0,3.18.54c1.18,0,1.83-.69,1.83-2.36V1.1h4.77Z"/><path d="M99.09,16.77V1.1H111v4h-7.14v2h6.07v3.75h-6.07v1.88h7.35v4Z"/><path d="M120.32,1.1c4.52,0,7.06,2.14,7.06,5.94A5.29,5.29,0,0,1,124.82,12l3.1,4.26v.54h-5.11l-2.87-3.93H118.4v3.93h-4.81V1.1ZM120.63,9a1.81,1.81,0,0,0,2-2c0-1.24-.83-1.93-2.29-1.93h-2V9Z"/><path d="M129.9,16.77V1.1h4.8V16.77Z"/><path d="M141.58,16.77H136.5L142.12,1.1h6.55l5.62,15.67h-5.06l-.77-2.34h-6.13ZM145.87,6.6c-.23-.64-.36-1.18-.49-1.64a16.75,16.75,0,0,1-.46,1.64l-1.26,3.75h3.44Z"/><path class="cls-3" d="M12.31,9A3.43,3.43,0,1,1,8.89,5.6,3.43,3.43,0,0,1,12.31,9Z"/><g class="cls-4"><polyline class="cls-3" points="8.73 7.68 17.74 3.89 17.74 13.34 8.73 9.81"/></g><path d="M37.9,24.75a7.6,7.6,0,0,1,2.31.31,4.59,4.59,0,0,1,1.61.87,3.65,3.65,0,0,1,1,1.35A4.89,4.89,0,0,1,43.08,29a4.63,4.63,0,0,1-.33,1.78,3.78,3.78,0,0,1-1,1.39,4.71,4.71,0,0,1-1.62.91,7.31,7.31,0,0,1-2.25.32h-2v4.92H33.67V24.75Zm0,6.93a4.29,4.29,0,0,0,1.3-.19,2.65,2.65,0,0,0,.93-.54,2.18,2.18,0,0,0,.56-.83,3.25,3.25,0,0,0,0-2.16,2.07,2.07,0,0,0-.56-.8,2.44,2.44,0,0,0-.93-.51,4.29,4.29,0,0,0-1.31-.17h-2v5.2Z"/><path d="M57,38.34h-1.7a.73.73,0,0,1-.48-.15,1,1,0,0,1-.27-.36l-1.13-3H47.6l-1.13,3a1.07,1.07,0,0,1-.27.35.72.72,0,0,1-.47.16H44l5.39-13.59h2.24Zm-4.18-5.1-1.86-5a12.08,12.08,0,0,1-.47-1.46c-.07.29-.14.56-.22.81s-.16.47-.23.66l-1.87,5Z"/><path d="M67.88,36.49v1.85H60V24.75h2.21V36.49Z"/><path d="M79.68,36.55v1.79H71.2V24.75h8.47v1.78H73.41v4.1h5v1.72h-5v4.2Z"/><path d="M93.82,38.34h-2a.9.9,0,0,1-.85-.46l-3.17-4.57a1,1,0,0,0-.35-.34,1.17,1.17,0,0,0-.56-.1H85.69v5.47H83.48V24.75h4a8.72,8.72,0,0,1,2.31.27,4.72,4.72,0,0,1,1.59.78A3.18,3.18,0,0,1,92.3,27a4,4,0,0,1,.3,1.58,3.81,3.81,0,0,1-.22,1.32A3.54,3.54,0,0,1,91.77,31a3.78,3.78,0,0,1-1,.87,4.87,4.87,0,0,1-1.33.58,2.09,2.09,0,0,1,.7.69Zm-6.39-7.08a4.39,4.39,0,0,0,1.32-.18,2.83,2.83,0,0,0,.94-.52,2.14,2.14,0,0,0,.57-.79,2.71,2.71,0,0,0,.18-1,2,2,0,0,0-.73-1.7,3.54,3.54,0,0,0-2.23-.58H85.69v4.78Z"/><path d="M111.33,24.75V38.34h-1.94V29c0-.15,0-.31,0-.49a4.9,4.9,0,0,1,0-.54l-4.37,8.06a.82.82,0,0,1-.78.5H104a.82.82,0,0,1-.78-.5L98.77,28c0,.18,0,.36,0,.55s0,.35,0,.5v9.32H96.88V24.75h1.65a1.64,1.64,0,0,1,.45.05.59.59,0,0,1,.3.32l4.36,7.9c.09.18.18.37.26.56a6.07,6.07,0,0,1,.24.59q.1-.3.24-.6a5,5,0,0,1,.27-.57l4.29-7.88a.58.58,0,0,1,.29-.32,1.75,1.75,0,0,1,.45-.05Z"/><path d="M128.75,31.54a7.65,7.65,0,0,1-.5,2.79,6.33,6.33,0,0,1-1.38,2.19A6.41,6.41,0,0,1,124.73,38a7.66,7.66,0,0,1-5.55,0A6.55,6.55,0,0,1,117,36.52a6.33,6.33,0,0,1-1.38-2.19,8.16,8.16,0,0,1,0-5.57,6.47,6.47,0,0,1,1.38-2.2,6.26,6.26,0,0,1,2.15-1.44,7.66,7.66,0,0,1,5.55,0,6.12,6.12,0,0,1,2.14,1.44,6.47,6.47,0,0,1,1.38,2.2A7.63,7.63,0,0,1,128.75,31.54Zm-2.26,0a6.52,6.52,0,0,0-.32-2.1,4.58,4.58,0,0,0-.9-1.59,4.15,4.15,0,0,0-1.43-1,5.4,5.4,0,0,0-3.77,0,4.06,4.06,0,0,0-1.43,1,4.62,4.62,0,0,0-.92,1.59,6.52,6.52,0,0,0-.32,2.1,6.65,6.65,0,0,0,.32,2.12,4.48,4.48,0,0,0,.92,1.58,3.91,3.91,0,0,0,1.43,1,5.4,5.4,0,0,0,3.77,0,4,4,0,0,0,1.43-1,4.44,4.44,0,0,0,.9-1.58A6.65,6.65,0,0,0,126.49,31.54Z"/></g></g></svg>